<?xml version="1.0" encoding="iso-8859-1"?>
<!-- Generator: Adobe Illustrator 19.0.0, SVG Export Plug-In . SVG Version: 6.00 Build 0)  -->
<svg version="1.1" id="Capa_1" xmlns="http://www.w3.org/2000/svg" xmlns:xlink="http://www.w3.org/1999/xlink" x="0px" y="0px"
	 viewBox="0 0 464 464" style="enable-background:new 0 0 464 464;" xml:space="preserve">
<path style="fill:#4398D1;" d="M72,48h240c17.673,0,32,14.327,32,32v352c0,17.673-14.327,32-32,32H72c-17.673,0-32-14.327-32-32V80
	C40,62.327,54.327,48,72,48z"/>
<path style="fill:#3E8CC7;" d="M120,464h192c17.673,0,32-14.327,32-32V240L120,464z"/>
<path style="fill:#D64333;" d="M248,368h64v64h-64V368z"/>
<path style="fill:#87CED9;" d="M312,80H72v352h176l64-64V80z"/>
<path style="fill:#FDB62F;" d="M400,152l-56,56l-32,32l-56,56l-8,32l32-8l32-32l32-32l80-80L400,152z"/>
<g>
	<path style="fill:#59B3C2;" d="M104,264h136v16H104V264z"/>
	<path style="fill:#59B3C2;" d="M104,296h112v16H104V296z"/>
	<path style="fill:#59B3C2;" d="M104,328h112v16H104V328z"/>
	<path style="fill:#59B3C2;" d="M104,360h112v16H104V360z"/>
	<path style="fill:#59B3C2;" d="M288,178.232l-27.68-9.224L235.312,144h-78.624l-24.8,24.8L96,177.752V232h25.472
		c4.335,12.442,17.935,19.014,30.376,14.68c6.877-2.396,12.284-7.802,14.68-14.68h50.944c4.335,12.442,17.935,19.014,30.376,14.68
		c6.877-2.396,12.284-7.802,14.68-14.68H288V178.232z M144,232c-4.418,0-8-3.582-8-8s3.582-8,8-8s8,3.582,8,8S148.418,232,144,232z
		 M240,232c-4.418,0-8-3.582-8-8s3.582-8,8-8s8,3.582,8,8S244.418,232,240,232z M272,216h-9.368c-0.096-0.272-0.24-0.512-0.344-0.8
		c-0.176-0.448-0.384-0.872-0.584-1.304c-0.414-0.886-0.882-1.746-1.4-2.576c-0.24-0.392-0.472-0.8-0.744-1.16
		c-0.671-0.945-1.409-1.84-2.208-2.68c-0.168-0.176-0.312-0.376-0.48-0.544c-0.989-0.977-2.06-1.869-3.2-2.664
		c-0.32-0.216-0.672-0.4-1-0.608c-0.87-0.547-1.773-1.038-2.704-1.472c-0.44-0.2-0.888-0.376-1.344-0.552
		c-0.939-0.363-1.901-0.663-2.88-0.896c-0.44-0.112-0.864-0.24-1.312-0.32c-2.903-0.595-5.897-0.595-8.8,0
		c-0.448,0.08-0.872,0.208-1.312,0.32c-0.979,0.233-1.941,0.533-2.88,0.896c-0.456,0.176-0.896,0.352-1.336,0.552
		c-0.935,0.432-1.841,0.923-2.712,1.472c-0.328,0.208-0.68,0.392-1,0.608c-1.14,0.795-2.211,1.687-3.2,2.664
		c-0.168,0.168-0.312,0.368-0.48,0.544c-0.799,0.84-1.537,1.735-2.208,2.68c-0.264,0.376-0.504,0.8-0.744,1.16
		c-0.518,0.83-0.986,1.69-1.4,2.576c-0.208,0.432-0.408,0.856-0.584,1.304c-0.104,0.264-0.248,0.504-0.344,0.8h-50.8
		c-0.096-0.272-0.24-0.512-0.344-0.8c-0.176-0.448-0.384-0.872-0.584-1.304c-0.414-0.886-0.882-1.746-1.4-2.576
		c-0.24-0.392-0.472-0.8-0.744-1.16c-0.671-0.945-1.409-1.84-2.208-2.68c-0.168-0.176-0.312-0.376-0.48-0.544
		c-0.989-0.977-2.06-1.869-3.2-2.664c-0.32-0.216-0.672-0.4-1-0.608c-0.87-0.547-1.773-1.038-2.704-1.472
		c-0.44-0.2-0.888-0.376-1.344-0.552c-0.939-0.363-1.901-0.663-2.88-0.896c-0.44-0.112-0.864-0.24-1.312-0.32
		c-2.903-0.595-5.897-0.595-8.8,0c-0.448,0.08-0.872,0.208-1.312,0.32c-0.979,0.233-1.941,0.533-2.88,0.896
		c-0.456,0.176-0.896,0.352-1.336,0.552c-0.935,0.432-1.841,0.923-2.712,1.472c-0.328,0.208-0.68,0.392-1,0.608
		c-1.14,0.795-2.211,1.687-3.2,2.664c-0.168,0.168-0.312,0.368-0.48,0.544c-0.799,0.84-1.537,1.735-2.208,2.68
		c-0.264,0.376-0.504,0.8-0.744,1.16c-0.518,0.83-0.986,1.69-1.4,2.576c-0.208,0.432-0.408,0.856-0.584,1.304
		c-0.104,0.264-0.248,0.504-0.344,0.8H112v-25.752l28.088-7.024l23.2-23.2h65.376l22.992,22.992l20.32,6.776L272,216z"/>
</g>
<path style="fill:#DE4C3C;" d="M104,112h176l-12-32l-12-32h-40V24c0-13.255-10.745-24-24-24c-13.255,0-24,10.745-24,24v24h-40
	l-12,32L104,112z"/>
<path style="fill:#FA962A;" d="M370.346,181.656l11.314-11.314l24.002,24.002l-11.314,11.314L370.346,181.656z"/>
<path style="fill:#59B3C2;" d="M248,432l64-64h-64V432z"/>
<path style="fill:#D64333;" d="M268,80l-12-32h-16l-64,64h104L268,80z"/>
<g>
</g>
<g>
</g>
<g>
</g>
<g>
</g>
<g>
</g>
<g>
</g>
<g>
</g>
<g>
</g>
<g>
</g>
<g>
</g>
<g>
</g>
<g>
</g>
<g>
</g>
<g>
</g>
<g>
</g>
</svg>
