<svg xmlns="http://www.w3.org/2000/svg" version="1.1" xmlns:xlink="http://www.w3.org/1999/xlink" xmlns:svgjs="http://svgjs.com/svgjs" height="95.0625655258619" width="257.3999938964844" background="#000000"><defs id="SvgjsDefs1665"></defs><g id="SvgjsG1666" rel="mainfill" name="main_text" xmlns:name="main_text" transform="translate(4.499999761581421,-168.67743996730218)" fill="#dc2727"><path d="M2.07 240L10.14 240C15.76 240 19.47 237.75 19.47 232.32C19.47 227.02 15.76 224.70 10.56 224.70L8.39 224.70L8.39 220.24L17.79 220.24L17.79 215.51L2.07 215.51ZM8.14 235.37L8.14 229.33L9.90 229.33C11.93 229.33 13.23 230.32 13.23 232.32C13.23 234.14 12.18 235.37 9.79 235.37ZM21.02 240L27.34 240L27.34 231.75L28.32 231.75C34.60 231.75 37.90 228.67 37.90 223.58C37.90 218.28 34.81 215.51 28.53 215.51L21.02 215.51ZM27.12 227.19L27.12 220.10L27.93 220.10C30.21 220.10 31.72 221.12 31.72 223.54C31.72 226.10 30.14 227.19 27.93 227.19ZM39.02 240L47.02 240C52.64 240 56.35 237.47 56.35 232.07C56.35 226.74 52.64 224.14 47.37 224.14L45.34 224.14L45.34 215.51L39.02 215.51ZM45.09 235.40L45.09 228.77L46.63 228.77C48.63 228.77 50.07 230.00 50.07 232.03C50.07 233.86 49.02 235.40 46.56 235.40ZM58.57 240L64.88 240L64.88 215.51L58.57 215.51ZM78.04 240L84.36 240L84.36 215.51L78.04 215.51L78.04 226.60C77.41 226.81 76.43 226.95 75.79 226.95C73.30 226.95 72.78 225.58 72.78 222.88L72.78 215.51L66.64 215.51L66.64 223.40C66.64 229.51 69.13 231.65 74.07 231.65C75.76 231.65 77.41 231.19 78.04 231.02ZM86.74 240L93.06 240L93.06 228.46L98.95 240L106.46 240L98.88 226.88L105.87 215.51L98.71 215.51L93.06 226.03L93.06 215.51L86.74 215.51ZM104.67 240L110.92 240L112.39 234.84L119.27 234.84L120.64 240L127.20 240L119.62 215.51L112.46 215.51ZM113.41 230.21C114.99 224.56 115.59 222.00 115.87 220.28L115.94 220.28C116.22 222.00 116.78 224.60 118.18 230.21ZM133.38 240L140.82 240L146.36 224.31C146.29 226.56 146.18 229.12 146.18 231.51L146.18 240L152.33 240L152.33 215.51L144.78 215.51L139.34 231.23C139.45 228.95 139.52 226.63 139.52 224.35L139.52 215.51L133.38 215.51ZM160.01 240.49C164.64 240.49 169.77 238.46 169.77 233.12C169.77 229.89 167.84 227.65 164.57 227.12C167.52 226.60 169.31 224.35 169.31 221.44C169.31 216.77 165.55 215.02 161.27 215.02C158.96 215.02 156.15 215.58 154.29 216.10L154.57 220.81C156.89 219.96 158.47 219.68 159.76 219.68C161.84 219.68 163.10 220.49 163.10 222.24C163.10 224.67 160.96 225.19 159.13 225.19C158.71 225.19 157.94 225.19 157.52 225.16L157.52 229.82C158.12 229.79 158.99 229.79 159.62 229.79C162.36 229.79 163.41 231.09 163.41 232.88C163.41 234.91 161.73 235.79 159.34 235.79C157.38 235.79 155.03 234.98 154.08 234.32L153.69 239.47C156.08 240.18 157.73 240.49 160.01 240.49ZM188.85 240.42C190.68 240.42 191.70 240.28 193.31 239.93L193.03 234.63C191.66 235.16 190.71 235.30 189.38 235.30C185.21 235.30 182.85 232.14 182.85 227.58C182.85 223.16 185.21 219.96 189.38 219.96C190.57 219.96 191.70 220.14 192.78 220.63L193.10 215.54C191.87 215.23 190.57 215.09 189.03 215.09C180.89 215.09 176.22 220.77 176.22 227.61C176.22 235.19 180.78 240.42 188.85 240.42ZM194.64 240L223.35 240L223.35 215.51L217.03 215.51L217.03 235.23L212.15 235.23L212.15 215.51L205.84 215.51L205.84 235.23L200.96 235.23L200.96 215.51L194.64 215.51ZM223.80 240L230.05 240L231.52 234.84L238.40 234.84L239.77 240L246.33 240L238.75 215.51L231.59 215.51ZM232.54 230.21C234.12 224.56 234.72 222.00 235.00 220.28L235.07 220.28C235.35 222.00 235.91 224.60 237.31 230.21Z" fill="#dc2727" style="fill: rgb(220, 39, 39);"></path></g><g id="SvgjsG1667" rel="mainfill" name="slogan_text" xmlns:name="slogan_text" transform="translate(-1.4700000286102295,-147.00744179835687)" fill="#ffffff"><path d="M3.02 238.67L3.02 234.94L6.77 234.94C7.70 234.94 8.11 235.71 8.11 236.87C8.11 237.98 7.77 238.67 6.83 238.67ZM3.02 230.58L6.71 230.58C7.62 230.58 7.88 231.12 7.88 232.09C7.88 232.97 7.60 233.66 6.71 233.66L3.02 233.66ZM7.36 234.26C9.27 234.09 9.53 233.15 9.53 231.81C9.53 230.35 9.08 229.25 6.94 229.25L1.47 229.25L1.47 240L7.06 240C8.79 240 9.79 239.06 9.79 237.01C9.79 235.47 9.39 234.36 7.36 234.26ZM15.31 240.22C17.80 240.22 18.95 239.26 18.95 236.05C18.95 232.86 17.78 231.97 15.31 231.97C12.86 231.97 11.67 232.86 11.67 236.05C11.67 239.26 12.85 240.22 15.31 240.22ZM15.31 233.21C16.90 233.21 17.41 233.63 17.41 236.08C17.41 238.43 16.90 238.97 15.31 238.97C13.73 238.97 13.22 238.43 13.22 236.08C13.22 233.63 13.73 233.21 15.31 233.21ZM22.42 233.48L26.08 233.48L26.08 240L27.53 240L27.53 232.18L20.97 232.18L20.97 240L22.42 240ZM34.53 233.48L34.53 240L36.00 240L36.00 232.18L30.69 232.18C30.55 235.08 29.95 237.79 29.21 240L30.77 240C31.37 238.10 31.89 235.59 32.08 233.48ZM41.62 240.22C44.11 240.22 45.26 239.26 45.26 236.05C45.26 232.86 44.09 231.97 41.62 231.97C39.17 231.97 37.98 232.86 37.98 236.05C37.98 239.26 39.16 240.22 41.62 240.22ZM41.62 233.21C43.21 233.21 43.72 233.63 43.72 236.08C43.72 238.43 43.21 238.97 41.62 238.97C40.04 238.97 39.53 238.43 39.53 236.08C39.53 233.63 40.04 233.21 41.62 233.21ZM57.80 242.07L58.94 242.07L59.30 238.70L57.71 238.70L57.71 232.18L56.26 232.18L56.26 238.70L53.22 238.70L53.22 232.18L51.77 232.18L51.77 238.70L48.73 238.70L48.73 232.18L47.27 232.18L47.27 240L57.80 240ZM66.82 235.00C66.82 232.64 65.81 231.97 63.51 231.97C62.41 231.97 61.35 232.17 60.65 232.35L60.96 233.62C61.60 233.37 62.47 233.26 63.28 233.26C64.99 233.26 65.40 233.62 65.40 235.25C64.66 235.10 64.06 235.02 63.32 235.02C61.53 235.02 60.24 235.37 60.24 237.59C60.24 239.63 61.12 240.22 63.48 240.22C64.53 240.22 65.90 239.98 66.82 239.60ZM65.40 238.72C64.88 238.91 64.22 239.03 63.57 239.03C62.17 239.03 61.81 238.83 61.81 237.52C61.81 236.30 62.26 236.16 63.59 236.16C64.25 236.16 64.91 236.21 65.40 236.33L65.40 238.72ZM74.90 238.57C74.27 238.78 73.24 238.94 72.68 238.94C71.10 238.94 70.37 238.49 70.36 236.39L75.68 236.39C75.75 232.83 74.72 231.97 72.38 231.97C70.08 231.97 68.80 232.95 68.80 236.05C68.80 239.26 70.20 240.22 72.51 240.22C73.25 240.22 74.38 240.03 75.18 239.78ZM72.44 233.18C73.70 233.18 74.15 233.54 74.23 235.20L70.37 235.20C70.49 233.65 71.02 233.18 72.44 233.18ZM82.00 237.41C81.29 235.62 80.55 233.91 79.73 232.18L77.51 232.18L77.51 240L78.96 240L78.96 233.69C79.75 235.45 80.64 237.70 81.30 239.49L82.51 239.49C83.14 237.73 84.07 235.50 84.91 233.69L84.91 240L86.35 240L86.35 232.18L84.20 232.18C83.40 233.89 82.69 235.59 82.00 237.41ZM99.13 235.00C99.13 232.64 98.11 231.97 95.82 231.97C94.72 231.97 93.66 232.17 92.96 232.35L93.27 233.62C93.90 233.37 94.78 233.26 95.59 233.26C97.30 233.26 97.71 233.62 97.71 235.25C96.97 235.10 96.37 235.02 95.63 235.02C93.84 235.02 92.55 235.37 92.55 237.59C92.55 239.63 93.43 240.22 95.79 240.22C96.83 240.22 98.21 239.98 99.13 239.60ZM97.71 238.72C97.19 238.91 96.53 239.03 95.88 239.03C94.48 239.03 94.12 238.83 94.12 237.52C94.12 236.30 94.57 236.16 95.89 236.16C96.56 236.16 97.22 236.21 97.71 236.33L97.71 238.72ZM102.80 238.80L102.80 236.42L105.47 236.42C106.21 236.42 106.54 236.87 106.54 237.69C106.54 238.47 106.27 238.80 105.52 238.80ZM102.80 233.38L105.41 233.38C106.15 233.38 106.37 233.62 106.37 234.29C106.37 234.91 106.15 235.30 105.41 235.30L102.80 235.30ZM106.23 235.81C107.65 235.70 107.89 235.03 107.89 234.05C107.89 232.98 107.51 232.18 105.76 232.18L101.35 232.18L101.35 240L105.87 240C107.28 240 108.09 239.32 108.09 237.83C108.09 236.72 107.71 235.87 106.23 235.81ZM113.40 233.48L116.27 233.48L116.27 232.18L109.05 232.18L109.05 233.48L111.93 233.48L111.93 240L113.40 240ZM120.91 240.22C123.39 240.22 124.55 239.26 124.55 236.05C124.55 232.86 123.38 231.97 120.91 231.97C118.46 231.97 117.27 232.86 117.27 236.05C117.27 239.26 118.44 240.22 120.91 240.22ZM120.91 233.21C122.50 233.21 123.01 233.63 123.01 236.08C123.01 238.43 122.50 238.97 120.91 238.97C119.32 238.97 118.81 238.43 118.81 236.08C118.81 233.63 119.32 233.21 120.91 233.21ZM131.06 237.41C130.35 235.62 129.61 233.91 128.79 232.18L126.57 232.18L126.57 240L128.02 240L128.02 233.69C128.80 235.45 129.70 237.70 130.36 239.49L131.57 239.49C132.20 237.73 133.12 235.50 133.97 233.69L133.97 240L135.41 240L135.41 232.18L133.26 232.18C132.46 233.89 131.75 235.59 131.06 237.41ZM141.05 240.22C143.53 240.22 144.69 239.26 144.69 236.05C144.69 232.86 143.52 231.97 141.05 231.97C138.60 231.97 137.41 232.86 137.41 236.05C137.41 239.26 138.58 240.22 141.05 240.22ZM141.05 233.21C142.64 233.21 143.15 233.63 143.15 236.08C143.15 238.43 142.64 238.97 141.05 238.97C139.46 238.97 138.95 238.43 138.95 236.08C138.95 233.63 139.46 233.21 141.05 233.21ZM148.01 236.25C148.01 234.20 148.38 233.58 150.04 233.58C151.43 233.58 151.94 234.11 151.94 236.24C151.94 238.57 151.41 238.95 149.86 238.95C148.62 238.95 148.01 238.24 148.01 236.25ZM147.97 233.29C148.19 231.61 148.45 230.89 150.23 230.73C151.38 230.62 152.32 230.47 153.03 230.15L153.03 228.82C152.18 229.19 151.21 229.33 150.18 229.42C147.54 229.65 146.48 230.50 146.48 235.57C146.48 239.20 147.65 240.22 149.83 240.22C152.32 240.22 153.48 239.32 153.48 236.25C153.48 233.17 152.35 232.29 150.26 232.29C149.13 232.29 148.41 232.67 147.97 233.29ZM160.64 240L162.09 240L162.09 232.18L160.64 232.18C159.49 234.16 158.20 236.22 156.93 237.86L156.93 232.18L155.47 232.18L155.47 240L156.93 240C158.20 238.37 159.56 236.44 160.64 234.54ZM169.09 233.48L169.09 240L170.55 240L170.55 232.18L165.25 232.18C165.11 235.08 164.51 237.79 163.77 240L165.32 240C165.93 238.10 166.45 235.59 166.64 233.48ZM176.89 238.83L174.24 238.83L174.24 236.34L176.88 236.34C177.62 236.34 177.97 236.65 177.97 237.55C177.97 238.49 177.65 238.83 176.89 238.83ZM174.24 235.16L174.24 232.18L172.77 232.18L172.77 240L177.12 240C178.77 240 179.53 239.29 179.53 237.53C179.53 235.94 178.77 235.16 177.12 235.16ZM186.54 236.44L186.54 240L188.01 240L188.01 232.18L186.54 232.18L186.54 235.19L182.91 235.19L182.91 232.18L181.44 232.18L181.44 240L182.91 240L182.91 236.44ZM194.36 238.83L191.71 238.83L191.71 236.34L194.35 236.34C195.09 236.34 195.44 236.65 195.44 237.55C195.44 238.49 195.12 238.83 194.36 238.83ZM191.71 235.16L191.71 232.18L190.25 232.18L190.25 240L194.60 240C196.25 240 197.00 239.29 197.00 237.53C197.00 235.94 196.25 235.16 194.60 235.16ZM199.41 232.18L197.94 232.18L197.94 240L199.41 240ZM207.52 238.57C206.89 238.78 205.85 238.94 205.30 238.94C203.71 238.94 202.98 238.49 202.97 236.39L208.29 236.39C208.37 232.83 207.33 231.97 204.99 231.97C202.69 231.97 201.41 232.95 201.41 236.05C201.41 239.26 202.82 240.22 205.13 240.22C205.87 240.22 206.99 240.03 207.80 239.78ZM205.05 233.18C206.32 233.18 206.76 233.54 206.84 235.20L202.98 235.20C203.11 233.65 203.63 233.18 205.05 233.18ZM218.87 237.41C218.16 235.62 217.42 233.91 216.60 232.18L214.38 232.18L214.38 240L215.83 240L215.83 233.69C216.62 235.45 217.51 237.70 218.18 239.49L219.38 239.49C220.01 237.73 220.94 235.50 221.78 233.69L221.78 240L223.22 240L223.22 232.18L221.07 232.18C220.27 233.89 219.56 235.59 218.87 237.41ZM231.33 238.57C230.70 238.78 229.66 238.94 229.11 238.94C227.52 238.94 226.80 238.49 226.78 236.39L232.10 236.39C232.18 232.83 231.15 231.97 228.80 231.97C226.50 231.97 225.22 232.95 225.22 236.05C225.22 239.26 226.63 240.22 228.94 240.22C229.68 240.22 230.81 240.03 231.61 239.78ZM228.86 233.18C230.13 233.18 230.57 233.54 230.65 235.20L226.80 235.20C226.92 233.65 227.44 233.18 228.86 233.18ZM233.47 233.95C233.47 236.84 234.38 237.53 236.36 237.53C237.25 237.53 238.13 237.24 238.58 236.95L238.58 240L240.03 240L240.03 232.18L238.58 232.18L238.58 235.30C238.58 235.88 237.68 236.19 236.74 236.19C235.45 236.19 234.92 235.79 234.92 233.77L234.92 232.18L233.47 232.18ZM245.61 233.48L248.48 233.48L248.48 232.18L241.26 232.18L241.26 233.48L244.15 233.48L244.15 240L245.61 240ZM253.83 238.83L251.18 238.83L251.18 236.34L253.82 236.34C254.56 236.34 254.91 236.65 254.91 237.55C254.91 238.49 254.59 238.83 253.83 238.83ZM251.18 235.16L251.18 232.18L249.71 232.18L249.71 240L254.06 240C255.71 240 256.47 239.29 256.47 237.53C256.47 235.94 255.71 235.16 254.06 235.16ZM258.87 232.18L257.41 232.18L257.41 240L258.87 240Z" fill="#ffffff" style="fill: rgb(255, 255, 255);"></path></g><g id="SvgjsG1668" rel="mainfill" name="symbol" xmlns:name="symbol_mainfill" transform="translate(93.77457838037768,-17.43038503702255) scale(0.697215401480902)" fill="#ffffff"><g fill="#ffffff"><g fill="#ffffff"><path d="M33.2,35.2c0,0-25.9,1.3-29.3,13.1c-0.1,6.8,0,11.4,0,11.4s3.8,6.1,40.8,6c-8.2,1.1-35.4,1.7-42.3-6    C2.1,49.2,0.4,46.5,8.4,40.8s25.9-6.7,25.9-6.7l13.3-9L71.3,25l-3.8,7.1l-1.7,3.7c0,0,23.1-2.6,27.3-1.1s6.9,11.3,3.5,18.2    c0.5-5.9,0.5-11.2-2.1-11c-2.6,0.2-4.9,13.2-4.9,13.2s-23.4,4.8-28.2,7.2c0.8-9,0.2-16.2-6.8-17.4S44.2,59.6,45.3,65    c-1.6-4.5-0.1-19.1,7.3-21.1s9.7,5.7,9.8,7c0.2,1.3,0.4,4.9,0,9.6c3.5-1,26.5-5.8,26.5-5.8s2.1-12.8,4.4-13.5    c2.3-0.8,3.6,1.3,3.7,2c0.1,0.7,0.3,3.5,0.3,3.5s0.5-4.7-1.4-8.2s-5.7-3.8-9.1-3.6c-3.4,0.2-22.8,1.9-22.8,1.9L70,25.5l-22.1,0.2    L34.5,35L33.2,35.2z" fill="#ffffff" style="fill: rgb(255, 255, 255);"></path><path d="M61.5,37.8c0,0-30.9-1.4-40,15.6C23.5,47.7,31,37,61.5,37.8z" fill="#ffffff" style="fill: rgb(255, 255, 255);"></path><path d="M67.8,32.8l2.2-0.7c0,0,2-2.9,4.3-2.7c2.3,0.2,1.7,4.7,1.7,4.7l-9,0.9L67.8,32.8z" fill="#ffffff" style="fill: rgb(255, 255, 255);"></path><path d="M76.7,33.8c0,0,0.5-3.1,2.3-3.2s2.8,0.8,3.1,2.8L76.7,33.8z" fill="#ffffff" style="fill: rgb(255, 255, 255);"></path><path d="M5.2,54.8c0,0,13.6,5.1,35,2.5c-3,5.8-25.4,6-35.9,1.8c0,0,10.4,6.1,26.9,3.2c10.8-2.1,11-6.6,11-6.6S20.6,58.8,5.2,54.8z    " fill="#ffffff" style="fill: rgb(255, 255, 255);"></path><path d="M61,63.2c-1.8,2.5-4.2,5.7-8.6,6.1s-6.9-2.7-6.9-2.7s0.6,4.2,8.4,3.2C58,69.2,61,63.2,61,63.2z" fill="#ffffff" style="fill: rgb(255, 255, 255);"></path><path d="M87,56.3c0,0,0.5,1.8,2.8,1.9s6.2-1.9,6.6-4.7c0.1,1.7-2.2,5.1-6,5.2S87,56.3,87,56.3z" fill="#ffffff" style="fill: rgb(255, 255, 255);"></path></g><polygon points="36.8,35 62.2,36.2 68.5,26.4 61.5,35  "></polygon></g></g></svg>